<?xml version="1.0" standalone="no"?>
<!DOCTYPE svg PUBLIC "-//W3C//DTD SVG 20010904//EN"
 "http://www.w3.org/TR/2001/REC-SVG-20010904/DTD/svg10.dtd">
<svg version="1.0" xmlns="http://www.w3.org/2000/svg"
 width="50.000000pt" height="50.000000pt" viewBox="0 0 50.000000 50.000000"
 preserveAspectRatio="xMidYMid meet">

<g transform="translate(0.000000,50.000000) scale(0.100000,-0.100000)"
fill="#00FF00" stroke="none">
<path d="M216 415 l-47 -55 30 0 c24 0 31 -4 31 -20 0 -19 -7 -20 -90 -20 -73
0 -90 -3 -90 -15 0 -8 -7 -15 -15 -15 -13 0 -15 -21 -15 -130 l0 -130 215 0
c184 0 215 2 215 15 0 8 9 15 20 15 19 0 20 7 20 130 l0 130 -90 0 c-83 0 -90
1 -90 20 0 16 7 20 31 20 l30 0 -47 55 c-26 30 -51 55 -54 55 -3 0 -28 -25
-54 -55z m84 -2 c19 -24 20 -28 6 -31 -10 -2 -16 -14 -16 -33 0 -22 -5 -29
-20 -29 -15 0 -20 7 -20 29 0 19 -6 31 -16 33 -14 3 -13 7 6 31 12 15 25 27
30 27 5 0 18 -12 30 -27z m-210 -117 c0 -3 -4 -8 -10 -11 -5 -3 -10 -1 -10 4
0 6 5 11 10 11 6 0 10 -2 10 -4z m355 -21 c21 -22 25 -35 25 -85 0 -50 -4 -63
-25 -85 -25 -25 -29 -25 -175 -25 -146 0 -150 0 -175 25 -21 22 -25 35 -25 85
0 48 4 64 23 84 21 23 27 24 174 25 150 1 152 1 178 -24z m25 15 c0 -5 -2 -10
-4 -10 -3 0 -8 5 -11 10 -3 6 -1 10 4 10 6 0 11 -4 11 -10z m-227 -233 l192
-2 -197 -3 -198 -2 2 113 2 112 3 -107 4 -108 192 -3z m-158 33 c3 -5 1 -10
-4 -10 -6 0 -11 5 -11 10 0 6 2 10 4 10 3 0 8 -4 11 -10z m385 0 c0 -5 -5 -10
-11 -10 -5 0 -7 5 -4 10 3 6 8 10 11 10 2 0 4 -4 4 -10z"/>
<path d="M215 266 c-45 -45 -45 -107 0 -152 46 -46 123 -19 141 50 22 91 -79
164 -141 102z m100 -21 c33 -32 33 -78 0 -110 -13 -14 -34 -25 -45 -25 -32 0
-70 44 -70 80 0 36 38 80 70 80 12 0 32 -11 45 -25z"/>
<path d="M104 205 c-4 -9 -2 -21 4 -27 15 -15 44 -1 40 19 -4 23 -36 29 -44 8z"/>
<path d="M394 205 c-4 -9 -2 -21 4 -27 15 -15 44 -1 40 19 -4 23 -36 29 -44 8z"/>
</g>
</svg>
