<?xml version="1.0" standalone="no"?>
<!DOCTYPE svg PUBLIC "-//W3C//DTD SVG 20010904//EN"
 "http://www.w3.org/TR/2001/REC-SVG-20010904/DTD/svg10.dtd">
<svg version="1.0" xmlns="http://www.w3.org/2000/svg"
 width="50.000000pt" height="50.000000pt" viewBox="0 0 50.000000 50.000000"
 preserveAspectRatio="xMidYMid meet">

<g transform="translate(0.000000,50.000000) scale(0.100000,-0.100000)"
fill="#0E7A2D" stroke="none">
<path d="M216 415 l-47 -55 30 0 c24 0 31 -4 31 -20 0 -19 -7 -20 -90 -20 -73
0 -90 -3 -90 -15 0 -8 -7 -15 -15 -15 -13 0 -15 -21 -15 -130 l0 -130 215 0
c184 0 215 2 215 15 0 8 9 15 20 15 19 0 20 7 20 130 l0 130 -90 0 c-83 0 -90
1 -90 20 0 16 7 20 31 20 l30 0 -47 55 c-26 30 -51 55 -54 55 -3 0 -28 -25
-54 -55z m229 -140 c21 -22 25 -35 25 -85 0 -50 -4 -63 -25 -85 -25 -25 -29
-25 -175 -25 -146 0 -150 0 -175 25 -21 22 -25 35 -25 85 0 48 4 64 23 84 21
23 27 24 174 25 150 1 152 1 178 -24z m-202 -218 l192 -2 -197 -3 -198 -2 2
113 2 112 3 -107 4 -108 192 -3z"/>
<path d="M215 266 c-45 -45 -45 -107 0 -152 46 -46 123 -19 141 50 22 91 -79
164 -141 102z"/>
<path d="M104 205 c-4 -9 -2 -21 4 -27 15 -15 44 -1 40 19 -4 23 -36 29 -44 8z"/>
<path d="M394 205 c-4 -9 -2 -21 4 -27 15 -15 44 -1 40 19 -4 23 -36 29 -44 8z"/>
</g>
</svg>
