<?xml version="1.0" standalone="no"?>
<!DOCTYPE svg PUBLIC "-//W3C//DTD SVG 20010904//EN"
 "http://www.w3.org/TR/2001/REC-SVG-20010904/DTD/svg10.dtd">
<svg version="1.0" xmlns="http://www.w3.org/2000/svg"
 width="48.000000pt" height="48.000000pt" viewBox="0 0 48.000000 48.000000"
 preserveAspectRatio="xMidYMid meet">

<g transform="translate(0.000000,48.000000) scale(0.100000,-0.100000)"
fill="#FF0000" stroke="none">
<path d="M98 394 c-31 -16 -58 -61 -58 -96 0 -13 9 -37 20 -55 18 -30 169
-182 180 -183 3 0 39 33 81 72 82 79 119 130 119 166 0 55 -56 112 -111 112
-12 0 -37 -9 -55 -21 l-34 -21 -34 21 c-39 25 -70 26 -108 5z"/>
</g>
</svg>
